<mxfile host="Electron" agent="Mozilla/5.0 (Windows NT 10.0; Win64; x64) AppleWebKit/537.36 (KHTML, like Gecko) draw.io/28.2.5 Chrome/138.0.7204.251 Electron/37.6.1 Safari/537.36" version="28.2.5">
  <diagram name="Elben_Orks_Problemgraph" id="elben-orks">
    <mxGraphModel dx="2431" dy="1413" grid="1" gridSize="10" guides="1" tooltips="1" connect="1" arrows="1" fold="1" page="1" pageScale="1" pageWidth="827" pageHeight="1169" math="0" shadow="0">
      <root>
        <mxCell id="0" />
        <mxCell id="1" parent="0" />
        <mxCell id="UHkEubwFV01RrsCl-Dy8-4" value="" style="group" vertex="1" connectable="0" parent="1">
          <mxGeometry x="354" y="50" width="120" height="50" as="geometry" />
        </mxCell>
        <mxCell id="UHkEubwFV01RrsCl-Dy8-2" value="Orks: 3&lt;div&gt;Elben: 3&lt;/div&gt;" style="rounded=0;whiteSpace=wrap;html=1;" vertex="1" parent="UHkEubwFV01RrsCl-Dy8-4">
          <mxGeometry width="60" height="50" as="geometry" />
        </mxCell>
        <mxCell id="UHkEubwFV01RrsCl-Dy8-3" value="Orks: 0&lt;div&gt;Elben: 0&lt;/div&gt;" style="rounded=0;whiteSpace=wrap;html=1;" vertex="1" parent="UHkEubwFV01RrsCl-Dy8-4">
          <mxGeometry x="60" width="60" height="50" as="geometry" />
        </mxCell>
        <mxCell id="UHkEubwFV01RrsCl-Dy8-5" value="" style="group" vertex="1" connectable="0" parent="1">
          <mxGeometry x="354" y="130" width="120" height="50" as="geometry" />
        </mxCell>
        <mxCell id="UHkEubwFV01RrsCl-Dy8-6" value="Orks: 1&lt;div&gt;Elben: 3&lt;/div&gt;" style="rounded=0;whiteSpace=wrap;html=1;" vertex="1" parent="UHkEubwFV01RrsCl-Dy8-5">
          <mxGeometry width="60" height="50" as="geometry" />
        </mxCell>
        <mxCell id="UHkEubwFV01RrsCl-Dy8-7" value="Orks: 2&lt;div&gt;Elben: 0&lt;/div&gt;" style="rounded=0;whiteSpace=wrap;html=1;" vertex="1" parent="UHkEubwFV01RrsCl-Dy8-5">
          <mxGeometry x="60" width="60" height="50" as="geometry" />
        </mxCell>
        <mxCell id="UHkEubwFV01RrsCl-Dy8-9" value="OO" style="text;html=1;align=center;verticalAlign=middle;resizable=0;points=[];autosize=1;strokeColor=none;fillColor=none;" vertex="1" parent="1">
          <mxGeometry x="414" y="100" width="40" height="30" as="geometry" />
        </mxCell>
        <mxCell id="UHkEubwFV01RrsCl-Dy8-11" style="edgeStyle=orthogonalEdgeStyle;rounded=0;orthogonalLoop=1;jettySize=auto;html=1;exitX=0;exitY=1;exitDx=0;exitDy=0;entryX=1;entryY=0;entryDx=0;entryDy=0;" edge="1" parent="1" source="UHkEubwFV01RrsCl-Dy8-3" target="UHkEubwFV01RrsCl-Dy8-6">
          <mxGeometry relative="1" as="geometry" />
        </mxCell>
        <mxCell id="UHkEubwFV01RrsCl-Dy8-12" value="" style="group" vertex="1" connectable="0" parent="1">
          <mxGeometry x="354" y="210" width="120" height="50" as="geometry" />
        </mxCell>
        <mxCell id="UHkEubwFV01RrsCl-Dy8-13" value="Orks: 2&lt;div&gt;Elben: 3&lt;/div&gt;" style="rounded=0;whiteSpace=wrap;html=1;" vertex="1" parent="UHkEubwFV01RrsCl-Dy8-12">
          <mxGeometry width="60" height="50" as="geometry" />
        </mxCell>
        <mxCell id="UHkEubwFV01RrsCl-Dy8-14" value="Orks: 1&lt;div&gt;Elben: 0&lt;/div&gt;" style="rounded=0;whiteSpace=wrap;html=1;" vertex="1" parent="UHkEubwFV01RrsCl-Dy8-12">
          <mxGeometry x="60" width="60" height="50" as="geometry" />
        </mxCell>
        <mxCell id="UHkEubwFV01RrsCl-Dy8-16" style="edgeStyle=orthogonalEdgeStyle;rounded=0;orthogonalLoop=1;jettySize=auto;html=1;exitX=1;exitY=1;exitDx=0;exitDy=0;entryX=0;entryY=0;entryDx=0;entryDy=0;" edge="1" parent="1" source="UHkEubwFV01RrsCl-Dy8-6" target="UHkEubwFV01RrsCl-Dy8-14">
          <mxGeometry relative="1" as="geometry" />
        </mxCell>
        <mxCell id="UHkEubwFV01RrsCl-Dy8-17" value="O" style="text;html=1;align=center;verticalAlign=middle;resizable=0;points=[];autosize=1;strokeColor=none;fillColor=none;" vertex="1" parent="1">
          <mxGeometry x="414" y="180" width="30" height="30" as="geometry" />
        </mxCell>
        <mxCell id="UHkEubwFV01RrsCl-Dy8-18" value="" style="group" vertex="1" connectable="0" parent="1">
          <mxGeometry x="354" y="290" width="120" height="50" as="geometry" />
        </mxCell>
        <mxCell id="UHkEubwFV01RrsCl-Dy8-19" value="Orks: 0&lt;div&gt;Elben: 3&lt;/div&gt;" style="rounded=0;whiteSpace=wrap;html=1;" vertex="1" parent="UHkEubwFV01RrsCl-Dy8-18">
          <mxGeometry width="60" height="50" as="geometry" />
        </mxCell>
        <mxCell id="UHkEubwFV01RrsCl-Dy8-20" value="Orks: 3&lt;div&gt;Elben: 0&lt;/div&gt;" style="rounded=0;whiteSpace=wrap;html=1;" vertex="1" parent="UHkEubwFV01RrsCl-Dy8-18">
          <mxGeometry x="60" width="60" height="50" as="geometry" />
        </mxCell>
        <mxCell id="UHkEubwFV01RrsCl-Dy8-21" style="edgeStyle=orthogonalEdgeStyle;rounded=0;orthogonalLoop=1;jettySize=auto;html=1;exitX=0;exitY=1;exitDx=0;exitDy=0;entryX=0;entryY=0;entryDx=0;entryDy=0;" edge="1" parent="1" source="UHkEubwFV01RrsCl-Dy8-14" target="UHkEubwFV01RrsCl-Dy8-20">
          <mxGeometry relative="1" as="geometry" />
        </mxCell>
        <mxCell id="UHkEubwFV01RrsCl-Dy8-22" value="OO" style="text;html=1;align=center;verticalAlign=middle;resizable=0;points=[];autosize=1;strokeColor=none;fillColor=none;" vertex="1" parent="1">
          <mxGeometry x="414" y="260" width="40" height="30" as="geometry" />
        </mxCell>
        <mxCell id="UHkEubwFV01RrsCl-Dy8-23" value="" style="group" vertex="1" connectable="0" parent="1">
          <mxGeometry x="354" y="370" width="120" height="50" as="geometry" />
        </mxCell>
        <mxCell id="UHkEubwFV01RrsCl-Dy8-24" value="Orks: 1&lt;div&gt;Elben: 3&lt;/div&gt;" style="rounded=0;whiteSpace=wrap;html=1;" vertex="1" parent="UHkEubwFV01RrsCl-Dy8-23">
          <mxGeometry width="60" height="50" as="geometry" />
        </mxCell>
        <mxCell id="UHkEubwFV01RrsCl-Dy8-25" value="Orks: 2&lt;div&gt;Elben: 0&lt;/div&gt;" style="rounded=0;whiteSpace=wrap;html=1;" vertex="1" parent="UHkEubwFV01RrsCl-Dy8-23">
          <mxGeometry x="60" width="60" height="50" as="geometry" />
        </mxCell>
        <mxCell id="UHkEubwFV01RrsCl-Dy8-26" style="edgeStyle=orthogonalEdgeStyle;rounded=0;orthogonalLoop=1;jettySize=auto;html=1;exitX=1;exitY=1;exitDx=0;exitDy=0;entryX=0;entryY=0;entryDx=0;entryDy=0;" edge="1" parent="1" source="UHkEubwFV01RrsCl-Dy8-19" target="UHkEubwFV01RrsCl-Dy8-25">
          <mxGeometry relative="1" as="geometry" />
        </mxCell>
        <mxCell id="UHkEubwFV01RrsCl-Dy8-27" value="O" style="text;html=1;align=center;verticalAlign=middle;resizable=0;points=[];autosize=1;strokeColor=none;fillColor=none;" vertex="1" parent="1">
          <mxGeometry x="414" y="340" width="30" height="30" as="geometry" />
        </mxCell>
        <mxCell id="UHkEubwFV01RrsCl-Dy8-28" value="" style="group" vertex="1" connectable="0" parent="1">
          <mxGeometry x="354" y="450" width="120" height="50" as="geometry" />
        </mxCell>
        <mxCell id="UHkEubwFV01RrsCl-Dy8-29" value="Orks: 1&lt;div&gt;Elben: 1&lt;/div&gt;" style="rounded=0;whiteSpace=wrap;html=1;" vertex="1" parent="UHkEubwFV01RrsCl-Dy8-28">
          <mxGeometry width="60" height="50" as="geometry" />
        </mxCell>
        <mxCell id="UHkEubwFV01RrsCl-Dy8-30" value="Orks: 2&lt;div&gt;Elben: 2&lt;/div&gt;" style="rounded=0;whiteSpace=wrap;html=1;" vertex="1" parent="UHkEubwFV01RrsCl-Dy8-28">
          <mxGeometry x="60" width="60" height="50" as="geometry" />
        </mxCell>
        <mxCell id="UHkEubwFV01RrsCl-Dy8-31" style="edgeStyle=orthogonalEdgeStyle;rounded=0;orthogonalLoop=1;jettySize=auto;html=1;exitX=0;exitY=1;exitDx=0;exitDy=0;entryX=0;entryY=0;entryDx=0;entryDy=0;" edge="1" parent="1" source="UHkEubwFV01RrsCl-Dy8-25" target="UHkEubwFV01RrsCl-Dy8-30">
          <mxGeometry relative="1" as="geometry" />
        </mxCell>
        <mxCell id="UHkEubwFV01RrsCl-Dy8-32" value="EE" style="text;html=1;align=center;verticalAlign=middle;resizable=0;points=[];autosize=1;strokeColor=none;fillColor=none;" vertex="1" parent="1">
          <mxGeometry x="414" y="420" width="40" height="30" as="geometry" />
        </mxCell>
        <mxCell id="UHkEubwFV01RrsCl-Dy8-33" value="" style="group" vertex="1" connectable="0" parent="1">
          <mxGeometry x="354" y="535" width="120" height="50" as="geometry" />
        </mxCell>
        <mxCell id="UHkEubwFV01RrsCl-Dy8-34" value="Orks: 2&lt;div&gt;Elben: 2&lt;/div&gt;" style="rounded=0;whiteSpace=wrap;html=1;" vertex="1" parent="UHkEubwFV01RrsCl-Dy8-33">
          <mxGeometry width="60" height="50" as="geometry" />
        </mxCell>
        <mxCell id="UHkEubwFV01RrsCl-Dy8-35" value="Orks: 1&lt;div&gt;Elben: 1&lt;/div&gt;" style="rounded=0;whiteSpace=wrap;html=1;" vertex="1" parent="UHkEubwFV01RrsCl-Dy8-33">
          <mxGeometry x="60" width="60" height="50" as="geometry" />
        </mxCell>
        <mxCell id="UHkEubwFV01RrsCl-Dy8-36" style="edgeStyle=orthogonalEdgeStyle;rounded=0;orthogonalLoop=1;jettySize=auto;html=1;exitX=0;exitY=1;exitDx=0;exitDy=0;entryX=1;entryY=0;entryDx=0;entryDy=0;" edge="1" parent="1" source="UHkEubwFV01RrsCl-Dy8-30" target="UHkEubwFV01RrsCl-Dy8-34">
          <mxGeometry relative="1" as="geometry" />
        </mxCell>
        <mxCell id="UHkEubwFV01RrsCl-Dy8-37" value="EO" style="text;html=1;align=center;verticalAlign=middle;resizable=0;points=[];autosize=1;strokeColor=none;fillColor=none;" vertex="1" parent="1">
          <mxGeometry x="414" y="500" width="40" height="30" as="geometry" />
        </mxCell>
        <mxCell id="UHkEubwFV01RrsCl-Dy8-39" value="" style="group" vertex="1" connectable="0" parent="1">
          <mxGeometry x="354" y="620" width="120" height="50" as="geometry" />
        </mxCell>
        <mxCell id="UHkEubwFV01RrsCl-Dy8-40" value="Orks: 2&lt;div&gt;Elben: 0&lt;/div&gt;" style="rounded=0;whiteSpace=wrap;html=1;" vertex="1" parent="UHkEubwFV01RrsCl-Dy8-39">
          <mxGeometry width="60" height="50" as="geometry" />
        </mxCell>
        <mxCell id="UHkEubwFV01RrsCl-Dy8-41" value="Orks: 1&lt;div&gt;Elben: 3&lt;/div&gt;" style="rounded=0;whiteSpace=wrap;html=1;" vertex="1" parent="UHkEubwFV01RrsCl-Dy8-39">
          <mxGeometry x="60" width="60" height="50" as="geometry" />
        </mxCell>
        <mxCell id="UHkEubwFV01RrsCl-Dy8-42" style="edgeStyle=orthogonalEdgeStyle;rounded=0;orthogonalLoop=1;jettySize=auto;html=1;exitX=0;exitY=1;exitDx=0;exitDy=0;entryX=0;entryY=0;entryDx=0;entryDy=0;" edge="1" parent="1" source="UHkEubwFV01RrsCl-Dy8-35" target="UHkEubwFV01RrsCl-Dy8-41">
          <mxGeometry relative="1" as="geometry" />
        </mxCell>
        <mxCell id="UHkEubwFV01RrsCl-Dy8-43" value="EE" style="text;html=1;align=center;verticalAlign=middle;resizable=0;points=[];autosize=1;strokeColor=none;fillColor=none;" vertex="1" parent="1">
          <mxGeometry x="414" y="585" width="40" height="30" as="geometry" />
        </mxCell>
        <mxCell id="UHkEubwFV01RrsCl-Dy8-50" value="" style="group" vertex="1" connectable="0" parent="1">
          <mxGeometry x="354" y="700" width="120" height="50" as="geometry" />
        </mxCell>
        <mxCell id="UHkEubwFV01RrsCl-Dy8-51" value="Orks: 3&lt;div&gt;Elben: 0&lt;/div&gt;" style="rounded=0;whiteSpace=wrap;html=1;" vertex="1" parent="UHkEubwFV01RrsCl-Dy8-50">
          <mxGeometry width="60" height="50" as="geometry" />
        </mxCell>
        <mxCell id="UHkEubwFV01RrsCl-Dy8-52" value="Orks: 0&lt;div&gt;Elben: 3&lt;/div&gt;" style="rounded=0;whiteSpace=wrap;html=1;" vertex="1" parent="UHkEubwFV01RrsCl-Dy8-50">
          <mxGeometry x="60" width="60" height="50" as="geometry" />
        </mxCell>
        <mxCell id="UHkEubwFV01RrsCl-Dy8-53" style="edgeStyle=orthogonalEdgeStyle;rounded=0;orthogonalLoop=1;jettySize=auto;html=1;exitX=0;exitY=1;exitDx=0;exitDy=0;entryX=0;entryY=0;entryDx=0;entryDy=0;" edge="1" parent="1" source="UHkEubwFV01RrsCl-Dy8-41" target="UHkEubwFV01RrsCl-Dy8-52">
          <mxGeometry relative="1" as="geometry" />
        </mxCell>
        <mxCell id="UHkEubwFV01RrsCl-Dy8-54" value="O" style="text;html=1;align=center;verticalAlign=middle;resizable=0;points=[];autosize=1;strokeColor=none;fillColor=none;" vertex="1" parent="1">
          <mxGeometry x="414" y="670" width="30" height="30" as="geometry" />
        </mxCell>
        <mxCell id="UHkEubwFV01RrsCl-Dy8-55" value="" style="group" vertex="1" connectable="0" parent="1">
          <mxGeometry x="354" y="780" width="120" height="50" as="geometry" />
        </mxCell>
        <mxCell id="UHkEubwFV01RrsCl-Dy8-56" value="Orks: 1&lt;div&gt;&lt;span style=&quot;background-color: transparent; color: light-dark(rgb(0, 0, 0), rgb(255, 255, 255));&quot;&gt;Elben: 0&lt;/span&gt;&lt;/div&gt;" style="rounded=0;whiteSpace=wrap;html=1;" vertex="1" parent="UHkEubwFV01RrsCl-Dy8-55">
          <mxGeometry width="60" height="50" as="geometry" />
        </mxCell>
        <mxCell id="UHkEubwFV01RrsCl-Dy8-57" value="Orks: 2&lt;div&gt;Elben: 3&lt;/div&gt;" style="rounded=0;whiteSpace=wrap;html=1;" vertex="1" parent="UHkEubwFV01RrsCl-Dy8-55">
          <mxGeometry x="60" width="60" height="50" as="geometry" />
        </mxCell>
        <mxCell id="UHkEubwFV01RrsCl-Dy8-61" style="edgeStyle=orthogonalEdgeStyle;rounded=0;orthogonalLoop=1;jettySize=auto;html=1;exitX=0;exitY=1;exitDx=0;exitDy=0;entryX=1;entryY=0;entryDx=0;entryDy=0;" edge="1" parent="1" source="UHkEubwFV01RrsCl-Dy8-52" target="UHkEubwFV01RrsCl-Dy8-56">
          <mxGeometry relative="1" as="geometry" />
        </mxCell>
        <mxCell id="UHkEubwFV01RrsCl-Dy8-62" value="OO" style="text;html=1;align=center;verticalAlign=middle;resizable=0;points=[];autosize=1;strokeColor=none;fillColor=none;" vertex="1" parent="1">
          <mxGeometry x="414" y="750" width="40" height="30" as="geometry" />
        </mxCell>
        <mxCell id="UHkEubwFV01RrsCl-Dy8-63" value="" style="group" vertex="1" connectable="0" parent="1">
          <mxGeometry x="354" y="860" width="120" height="50" as="geometry" />
        </mxCell>
        <mxCell id="UHkEubwFV01RrsCl-Dy8-64" value="Orks: 2&lt;div&gt;&lt;span style=&quot;background-color: transparent; color: light-dark(rgb(0, 0, 0), rgb(255, 255, 255));&quot;&gt;Elben: 0&lt;/span&gt;&lt;/div&gt;" style="rounded=0;whiteSpace=wrap;html=1;" vertex="1" parent="UHkEubwFV01RrsCl-Dy8-63">
          <mxGeometry width="60" height="50" as="geometry" />
        </mxCell>
        <mxCell id="UHkEubwFV01RrsCl-Dy8-65" value="Orks: 1&lt;div&gt;Elben: 3&lt;/div&gt;" style="rounded=0;whiteSpace=wrap;html=1;" vertex="1" parent="UHkEubwFV01RrsCl-Dy8-63">
          <mxGeometry x="60" width="60" height="50" as="geometry" />
        </mxCell>
        <mxCell id="UHkEubwFV01RrsCl-Dy8-66" style="edgeStyle=orthogonalEdgeStyle;rounded=0;orthogonalLoop=1;jettySize=auto;html=1;exitX=1;exitY=1;exitDx=0;exitDy=0;entryX=1;entryY=0;entryDx=0;entryDy=0;" edge="1" parent="1" source="UHkEubwFV01RrsCl-Dy8-56" target="UHkEubwFV01RrsCl-Dy8-64">
          <mxGeometry relative="1" as="geometry" />
        </mxCell>
        <mxCell id="UHkEubwFV01RrsCl-Dy8-67" value="O" style="text;html=1;align=center;verticalAlign=middle;resizable=0;points=[];autosize=1;strokeColor=none;fillColor=none;" vertex="1" parent="1">
          <mxGeometry x="414" y="830" width="30" height="30" as="geometry" />
        </mxCell>
        <mxCell id="UHkEubwFV01RrsCl-Dy8-68" value="" style="group" vertex="1" connectable="0" parent="1">
          <mxGeometry x="354" y="940" width="120" height="50" as="geometry" />
        </mxCell>
        <mxCell id="UHkEubwFV01RrsCl-Dy8-69" value="Orks: 0&lt;div&gt;&lt;span style=&quot;background-color: transparent; color: light-dark(rgb(0, 0, 0), rgb(255, 255, 255));&quot;&gt;Elben: 0&lt;/span&gt;&lt;/div&gt;" style="rounded=0;whiteSpace=wrap;html=1;" vertex="1" parent="UHkEubwFV01RrsCl-Dy8-68">
          <mxGeometry width="60" height="50" as="geometry" />
        </mxCell>
        <mxCell id="UHkEubwFV01RrsCl-Dy8-70" value="Orks: 3&lt;div&gt;Elben: 3&lt;/div&gt;" style="rounded=0;whiteSpace=wrap;html=1;" vertex="1" parent="UHkEubwFV01RrsCl-Dy8-68">
          <mxGeometry x="60" width="60" height="50" as="geometry" />
        </mxCell>
        <mxCell id="UHkEubwFV01RrsCl-Dy8-71" style="edgeStyle=orthogonalEdgeStyle;rounded=0;orthogonalLoop=1;jettySize=auto;html=1;exitX=0;exitY=1;exitDx=0;exitDy=0;entryX=1;entryY=0;entryDx=0;entryDy=0;" edge="1" parent="1" source="UHkEubwFV01RrsCl-Dy8-65" target="UHkEubwFV01RrsCl-Dy8-69">
          <mxGeometry relative="1" as="geometry" />
        </mxCell>
        <mxCell id="UHkEubwFV01RrsCl-Dy8-72" value="OO" style="text;html=1;align=center;verticalAlign=middle;resizable=0;points=[];autosize=1;strokeColor=none;fillColor=none;" vertex="1" parent="1">
          <mxGeometry x="414" y="910" width="40" height="30" as="geometry" />
        </mxCell>
        <mxCell id="UHkEubwFV01RrsCl-Dy8-73" value="&lt;b&gt;&lt;u&gt;Aktionen:&lt;/u&gt;&lt;/b&gt;&lt;div&gt;O = 1 Ork&lt;/div&gt;&lt;div&gt;OO = 2 Orks&lt;/div&gt;&lt;div&gt;EO = 1 Elb / 1 Ork&lt;/div&gt;&lt;div&gt;EE = 2 Elben&lt;/div&gt;" style="rounded=0;whiteSpace=wrap;html=1;" vertex="1" parent="1">
          <mxGeometry x="150" y="200" width="120" height="90" as="geometry" />
        </mxCell>
        <mxCell id="UHkEubwFV01RrsCl-Dy8-74" value="Startzustand:&amp;nbsp;" style="rounded=0;whiteSpace=wrap;html=1;" vertex="1" parent="1">
          <mxGeometry x="150" y="310" width="120" height="50" as="geometry" />
        </mxCell>
        <mxCell id="UHkEubwFV01RrsCl-Dy8-75" value="" style="group" vertex="1" connectable="0" parent="1">
          <mxGeometry x="150" y="360" width="120" height="50" as="geometry" />
        </mxCell>
        <mxCell id="UHkEubwFV01RrsCl-Dy8-76" value="Orks: 3&lt;div&gt;Elben: 3&lt;/div&gt;" style="rounded=0;whiteSpace=wrap;html=1;" vertex="1" parent="UHkEubwFV01RrsCl-Dy8-75">
          <mxGeometry width="60" height="50" as="geometry" />
        </mxCell>
        <mxCell id="UHkEubwFV01RrsCl-Dy8-77" value="Orks: 0&lt;div&gt;Elben: 0&lt;/div&gt;" style="rounded=0;whiteSpace=wrap;html=1;" vertex="1" parent="UHkEubwFV01RrsCl-Dy8-75">
          <mxGeometry x="60" width="60" height="50" as="geometry" />
        </mxCell>
        <mxCell id="UHkEubwFV01RrsCl-Dy8-78" value="Endzustand:" style="rounded=0;whiteSpace=wrap;html=1;" vertex="1" parent="1">
          <mxGeometry x="150" y="430" width="120" height="50" as="geometry" />
        </mxCell>
        <mxCell id="UHkEubwFV01RrsCl-Dy8-82" value="" style="group" vertex="1" connectable="0" parent="1">
          <mxGeometry x="150" y="480" width="120" height="50" as="geometry" />
        </mxCell>
        <mxCell id="UHkEubwFV01RrsCl-Dy8-83" value="Orks: 0&lt;div&gt;&lt;span style=&quot;background-color: transparent; color: light-dark(rgb(0, 0, 0), rgb(255, 255, 255));&quot;&gt;Elben: 0&lt;/span&gt;&lt;/div&gt;" style="rounded=0;whiteSpace=wrap;html=1;" vertex="1" parent="UHkEubwFV01RrsCl-Dy8-82">
          <mxGeometry width="60" height="50" as="geometry" />
        </mxCell>
        <mxCell id="UHkEubwFV01RrsCl-Dy8-84" value="Orks: 3&lt;div&gt;Elben: 3&lt;/div&gt;" style="rounded=0;whiteSpace=wrap;html=1;" vertex="1" parent="UHkEubwFV01RrsCl-Dy8-82">
          <mxGeometry x="60" width="60" height="50" as="geometry" />
        </mxCell>
        <mxCell id="UHkEubwFV01RrsCl-Dy8-86" value="Zustandsraum:&lt;br&gt;&lt;div&gt;E = {0,1,2,3}&lt;/div&gt;&lt;div&gt;O = {0,1,2,3}&lt;/div&gt;" style="rounded=0;whiteSpace=wrap;html=1;" vertex="1" parent="1">
          <mxGeometry x="150" y="560" width="120" height="60" as="geometry" />
        </mxCell>
        <mxCell id="UHkEubwFV01RrsCl-Dy8-87" value="Regeln:&lt;div&gt;&lt;br&gt;&lt;/div&gt;&lt;div&gt;Linke Seite:&lt;/div&gt;&lt;div&gt;(E&amp;gt;0) =&amp;gt; (Oe&amp;lt;= E)&lt;/div&gt;&lt;div&gt;&lt;br&gt;&lt;/div&gt;&lt;div&gt;Rechte Seite:&lt;/div&gt;&lt;div&gt;(E&amp;gt;0) =&amp;gt; (Oe&amp;lt;= E)&lt;/div&gt;" style="rounded=0;whiteSpace=wrap;html=1;" vertex="1" parent="1">
          <mxGeometry x="150" y="640" width="120" height="120" as="geometry" />
        </mxCell>
        <mxCell id="UHkEubwFV01RrsCl-Dy8-88" value="" style="rounded=0;whiteSpace=wrap;html=1;opacity=0;" vertex="1" parent="1">
          <mxGeometry x="90" y="20" width="470" height="1030" as="geometry" />
        </mxCell>
      </root>
    </mxGraphModel>
  </diagram>
</mxfile>
